<?xml version="1.0" encoding="UTF-8"?>
<!DOCTYPE svg PUBLIC "-//W3C//DTD SVG 1.1//EN" "http://www.w3.org/Graphics/SVG/1.1/DTD/svg11.dtd">
<!-- Creator: CorelDRAW -->
<svg xmlns="http://www.w3.org/2000/svg" xml:space="preserve" width="152.4mm" height="152.4mm" version="1.1" style="shape-rendering:geometricPrecision; text-rendering:geometricPrecision; image-rendering:optimizeQuality; fill-rule:evenodd; clip-rule:evenodd"
viewBox="0 0 15240 15240"
 xmlns:xlink="http://www.w3.org/1999/xlink"
 xmlns:xodm="http://www.corel.com/coreldraw/odm/2003">
 <defs>
  <style type="text/css">
   <![CDATA[
    .str0 {stroke:#E8E460;stroke-width:20;stroke-miterlimit:22.9256}
    .fil0 {fill:#5CA595}
    .fil2 {fill:#ABC922;fill-rule:nonzero}
    .fil1 {fill:#AFADD7;fill-rule:nonzero}
   ]]>
  </style>
 </defs>
 <g id="Layer_x0020_1">
  <metadata id="CorelCorpID_0Corel-Layer"/>
  <ellipse class="fil0 str0" cx="7620" cy="7620" rx="5985.84" ry="6350"/>
  <g id="_1726246288">
   <path class="fil1" d="M11126.22 5026.18l-1014.58 0c-27.06,0 -57.49,14.38 -91.31,43.15 -33.81,28.73 -54.11,54.95 -60.87,78.63l-943.54 2648.01c-54.11,152.18 -81.17,272.25 -81.17,360.18 0,84.55 23.68,157.22 71,218.09 162.35,216.47 341.59,324.7 537.75,324.7l1014.54 0 0 111.57 -1542.12 0c-111.61,0 -235.89,-36.35 -372.85,-109.07 -136.96,-72.71 -236.73,-155.55 -299.31,-248.57 -62.58,-92.97 -110.74,-185.15 -144.59,-276.46 -33.81,-91.3 -50.7,-184.28 -50.7,-279 0,-84.55 18.6,-185.99 55.79,-304.36l801.49 -2232.04c47.36,-138.67 131.91,-250.28 253.66,-334.83 54.11,-37.19 106.52,-65.08 157.26,-83.68 50.74,-18.59 106.52,-27.89 167.39,-27.89l1542.16 0 0 111.57z"/>
   <path class="fil2" d="M12330.21 6467.69l-1014.58 0c-27.06,0 -59.2,15.22 -96.39,45.66 -37.19,30.43 -55.79,55.78 -55.79,76.09l-608.75 1603.02 1065.28 0c54.12,0 89.64,25.36 106.57,76.09 0,6.76 3.37,18.6 10.13,35.52l-527.58 1501.56c-47.36,138.66 -131.91,250.27 -253.65,334.82 -54.12,37.2 -106.53,65.09 -157.26,83.72 -50.74,18.6 -106.53,27.89 -167.4,27.89l-2769.79 0 0 -111.61 2242.22 0c27.05,0 57.49,-14.38 91.3,-43.11 33.81,-28.76 54.12,-54.95 60.87,-78.63l674.71 -1709.55 -1247.94 -5.09 527.58 -1501.58c47.36,-138.67 131.91,-250.24 253.65,-334.8 54.12,-37.22 106.53,-65.12 157.27,-83.71 50.7,-18.6 106.52,-27.89 167.39,-27.89l1542.16 0 0 111.6z"/>
   <path class="fil2" d="M8831.26 5092.71l-1374.08 0c-36.62,0 -80.15,20.6 -130.55,61.82 -50.35,41.21 -75.55,75.55 -75.55,103.07l-824.42 2170.98 1442.73 0c73.32,0 121.4,34.34 144.28,103.07 0,9.14 4.6,25.2 13.74,48.08l-714.51 2033.6c-64.1,187.78 -178.63,338.93 -343.48,453.43 -73.32,50.39 -144.29,88.19 -213.02,113.39 -68.68,25.16 -144.24,37.76 -226.71,37.76l-3751.16 0 0 -151.15 3036.65 0c36.66,0 77.87,-19.47 123.68,-58.37 45.8,-38.94 73.28,-74.46 82.42,-106.49l913.75 -2315.3 -1690.08 -6.87 714.51 -2033.6c64.14,-187.78 178.63,-338.93 343.52,-453.42 73.28,-50.4 144.29,-88.2 212.98,-113.36 68.68,-25.2 144.28,-37.8 226.71,-37.8l2088.59 0 0 151.16z"/>
  </g>
 </g>
</svg>
