<?xml version="1.0" encoding="UTF-8"?>
<!DOCTYPE svg PUBLIC "-//W3C//DTD SVG 1.1//EN" "http://www.w3.org/Graphics/SVG/1.1/DTD/svg11.dtd">
<!-- Creator: CorelDRAW -->
<svg xmlns="http://www.w3.org/2000/svg" xml:space="preserve" width="25.4mm" height="25.4mm" version="1.1" style="shape-rendering:geometricPrecision; text-rendering:geometricPrecision; image-rendering:optimizeQuality; fill-rule:evenodd; clip-rule:evenodd"
viewBox="0 0 2540 2540"
 xmlns:xlink="http://www.w3.org/1999/xlink"
 xmlns:xodm="http://www.corel.com/coreldraw/odm/2003">
 <defs>
  <style type="text/css">
   <![CDATA[
    .fil0 {fill:#AFADD7;fill-rule:nonzero}
    .fil1 {fill:#ABC922;fill-rule:nonzero}
   ]]>
  </style>
 </defs>
 <g id="Layer_x0020_1">
  <metadata id="CorelCorpID_0Corel-Layer"/>
  <g id="_1726246288">
   <path class="fil0" d="M2211.21 596.18l-267.35 0c-7.13,0 -15.15,3.79 -24.06,11.37 -8.91,7.57 -14.26,14.48 -16.04,20.72l-248.63 697.77c-14.26,40.1 -21.39,71.74 -21.39,94.91 0,22.28 6.24,41.43 18.71,57.47 42.78,57.04 90.01,85.56 141.7,85.56l267.34 0 0 29.4 -406.36 0c-29.41,0 -62.16,-9.58 -98.25,-28.74 -36.09,-19.16 -62.38,-40.99 -78.87,-65.5 -16.49,-24.5 -29.18,-48.79 -38.1,-72.85 -8.91,-24.06 -13.36,-48.56 -13.36,-73.52 0,-22.28 4.9,-49.01 14.7,-80.2l211.2 -588.16c12.48,-36.54 34.76,-65.95 66.84,-88.23 14.26,-9.8 28.07,-17.15 41.44,-22.05 13.37,-4.9 28.07,-7.35 44.11,-7.35l406.37 0 0 29.4z"/>
   <path class="fil1" d="M2528.47 976.03l-267.35 0c-7.13,0 -15.6,4.01 -25.4,12.03 -9.8,8.02 -14.7,14.7 -14.7,20.05l-160.41 422.41 280.71 0c14.26,0 23.62,6.68 28.08,20.05 0,1.78 0.89,4.9 2.67,9.36l-139.02 395.67c-12.48,36.54 -34.76,65.95 -66.84,88.23 -14.26,9.8 -28.07,17.15 -41.44,22.06 -13.37,4.9 -28.07,7.35 -44.11,7.35l-729.86 0 0 -29.41 590.84 0c7.13,0 15.15,-3.79 24.06,-11.36 8.91,-7.58 14.26,-14.48 16.04,-20.72l177.79 -450.48 -328.84 -1.34 139.02 -395.68c12.48,-36.54 34.76,-65.94 66.84,-88.22 14.26,-9.81 28.07,-17.16 41.44,-22.06 13.36,-4.9 28.07,-7.35 44.11,-7.35l406.37 0 0 29.41z"/>
   <path class="fil1" d="M1606.47 613.71l-362.08 0c-9.65,0 -21.12,5.43 -34.4,16.29 -13.27,10.86 -19.91,19.91 -19.91,27.16l-217.24 572.07 380.17 0c19.32,0 31.99,9.05 38.02,27.16 0,2.41 1.21,6.64 3.62,12.67l-188.28 535.87c-16.89,49.48 -47.07,89.31 -90.51,119.48 -19.32,13.28 -38.02,23.24 -56.13,29.88 -18.1,6.63 -38.01,9.95 -59.74,9.95l-988.46 0 0 -39.83 800.18 0c9.66,0 20.52,-5.13 32.59,-15.38 12.07,-10.26 19.31,-19.62 21.72,-28.06l240.78 -610.1 -445.35 -1.81 188.28 -535.87c16.9,-49.48 47.07,-89.31 90.52,-119.48 19.31,-13.28 38.02,-23.24 56.12,-29.87 18.1,-6.64 38.02,-9.96 59.74,-9.96l550.36 0 0 39.83z"/>
  </g>
 </g>
</svg>
